PathFileType	4	(X/Y/Z)	/Users/niels/Desktop/University/Third Semester/Perception and Action/Exam/Gymnastics Motion Tracking/Code for Gym Tracking/Scripts/Analyzed Data/Start Salto/st_salto_good_id1_1_Sports2D/st_salto_good_id1_1_Sports2D_px_person00.trc
DataRate	CameraRate	NumFrames	NumMarkers	Units	OrigDataRate	OrigDataStartFrame	OrigNumFrames
29.763779527559056	29.763779527559056	8	22	m	29.763779527559056	79	127
Frame#	Time	Hip			RHip			RKnee			RAnkle			RBigToe			RSmallToe			RHeel			LHip			LKnee			LAnkle			LBigToe			LSmallToe			LHeel			Neck			Head			Nose			RShoulder			RElbow			RWrist			LShoulder			LElbow			LWrist		
		X1	Y1	Z1	X2	Y2	Z2	X3	Y3	Z3	X4	Y4	Z4	X5	Y5	Z5	X6	Y6	Z6	X7	Y7	Z7	X8	Y8	Z8	X9	Y9	Z9	X10	Y10	Z10	X11	Y11	Z11	X12	Y12	Z12	X13	Y13	Z13	X14	Y14	Z14	X15	Y15	Z15	X16	Y16	Z16	X17	Y17	Z17	X18	Y18	Z18	X19	Y19	Z19	X20	Y20	Z20	X21	Y21	Z21	X22	Y22	Z22
79	2.6542328042328043	1.2758693474472578	-0.3890756647638037	0.0	1.273494942063275	-0.37909891719915956	0.0	1.3265930852963872	-0.22984532742796396	0.0	1.4351792785476747	-0.13390743106265307	0.0	1.4299585173105962	-0.06397120164362113	0.0	1.4417541406173158	-0.07538826028296912	0.0	1.4525237092153822	-0.13550845858907035	0.0	1.286021787469434	-0.3870193180217151	0.0	1.3890287009111957	-0.2986040344464421	0.0	1.5218273412121002	-0.35400708185719876	0.0	1.5714182094069642	-0.3145391778900231	0.0	1.5682059043819003	-0.31983370799862604	0.0	1.538851124375842	-0.3738607800387321	0.0	1.0954852487765387	-0.35135305870288386	0.0	1.0354226955589307	-0.29180981243070464	0.0	1.0991853116427661	-0.29022448233148984	0.0	1.1031584891208015	-0.35088349212339154	0.0	1.1438600543380266	-0.2427878466151657	0.0	1.1315248804468254	-0.16730629310999265	0.0	1.0964537401094216	-0.3650488538894678	0.0	1.1069360478794208	-0.2591511923237012	0.0	1.1104281817198098	-0.17729173450459232	0.0
80	2.687830687830688	1.2842318206260608	-0.3955061660052797	0.0	1.282330752826031	-0.38396054368935756	0.0	1.3478400975852018	-0.23834011133159475	0.0	1.46127955939629	-0.14898914162087895	0.0	1.4582480183735922	-0.07689453752119269	0.0	1.4708928942210302	-0.0907814631840025	0.0	1.480280935296275	-0.15011823015203277	0.0	1.2945981664796091	-0.39492030681947043	0.0	1.406560738823849	-0.3148975568306348	0.0	1.5355119629303584	-0.37988712737978614	0.0	1.5894512145404611	-0.3411841298245426	0.0	1.5846851819149579	-0.3471835179153365	0.0	1.5522632491758255	-0.40063060577476045	0.0	1.1047101377806843	-0.347553876728049	0.0	1.0495761875423686	-0.2844093432911033	0.0	1.113540590495843	-0.2853356408278953	0.0	1.1129853505125442	-0.3481887359680495	0.0	1.1544027149036684	-0.24135049565306743	0.0	1.142931153870321	-0.16227169361179075	0.0	1.1032675765297422	-0.36060901460745914	0.0	1.116311462798545	-0.2548192061350018	0.0	1.1205553476012322	-0.17437910532133755	0.0
81	2.7214285714285715	1.2922313742330507	-0.4017777577045296	0.0	1.2916445574351896	-0.38849018380368544	0.0	1.3682051118443244	-0.24797187695560263	0.0	1.4872441485181243	-0.1650722260979113	0.0	1.486116144946999	-0.09173020356787372	0.0	1.499477843697391	-0.10678895366905329	0.0	1.5079495402854546	-0.16558256015753003	0.0	1.3028441958861396	-0.40263965786523676	0.0	1.423094190083255	-0.33180433821550703	0.0	1.5478619743869868	-0.40631518467247185	0.0	1.604552135598962	-0.3679782836438141	0.0	1.5984640112267887	-0.37517927713294213	0.0	1.5639309035824658	-0.42768451091974286	0.0	1.1140586333241849	-0.343893811765298	0.0	1.0644114816067238	-0.27759770930411404	0.0	1.1278525897222738	-0.2809918513473895	0.0	1.1235821708860463	-0.3454363010787583	0.0	1.1647465350620327	-0.23967148710810637	0.0	1.1539338660897984	-0.15728986445758092	0.0	1.109543856347442	-0.35743873455620007	0.0	1.1254814966454767	-0.2530286567148323	0.0	1.130219435287467	-0.1725974882252225	0.0
82	2.755026455026455	1.3001856983164195	-0.40754594689795204	0.0	1.3014402526298794	-0.3924894556903898	0.0	1.3875638048084404	-0.25802878226337445	0.0	1.5128343193198364	-0.18202635701914252	0.0	1.5137950701714942	-0.10855989360415275	0.0	1.527367803634796	-0.12341382706978754	0.0	1.5351177648696182	-0.18209531904774323	0.0	1.3110301813018206	-0.40994490323069155	0.0	1.4383479795625462	-0.3493047537515759	0.0	1.5585863162924434	-0.4326632319994897	0.0	1.6166628450761025	-0.3955734101936261	0.0	1.609479606009296	-0.4042857179539203	0.0	1.5737771238875085	-0.45448470439079613	0.0	1.1235456864868596	-0.3404201999229533	0.0	1.079364607098818	-0.2714132688865525	0.0	1.1415556655998251	-0.2774399858947487	0.0	1.1345739430252209	-0.3427696361199083	0.0	1.1750159638097084	-0.23771415374970442	0.0	1.1647130365277907	-0.15264191626778062	0.0	1.1160578591302193	-0.35537770277487346	0.0	1.1339449615715693	-0.2532516221907071	0.0	1.1392712479875036	-0.17162599386028812	0.0
83	2.788624338624339	1.308475327577423	-0.4127240601422346	0.0	1.311732870112528	-0.39620996353196825	0.0	1.406041859278485	-0.2680136010271383	0.0	1.5378512608007469	-0.19998071045910545	0.0	1.5415225864138051	-0.1275211558572547	0.0	1.5545953517421094	-0.1412621602344736	0.0	1.561288868415775	-0.19994734425850497	0.0	1.319257067199439	-0.4168364437547572	0.0	1.4522088954488601	-0.36744517707530777	0.0	1.5675999430294802	-0.458489057126545	0.0	1.6262587281892038	-0.42434408294735293	0.0	1.6180552302227367	-0.4345411459158478	0.0	1.581789088998792	-0.4805802572628536	0.0	1.1335029082846726	-0.33719060742407103	0.0	1.094056160161717	-0.2658317063736486	0.0	1.1543531015015414	-0.27471387323475827	0.0	1.1458650853153345	-0.34019360344628463	0.0	1.1855172469718487	-0.23563030135428964	0.0	1.1756147288773984	-0.14867964644134263	0.0	1.123440621599108	-0.35360610814664406	0.0	1.1416233439240389	-0.2545501401077442	0.0	1.1477419416381371	-0.17119424734396932	0.0
84	2.8222222222222224	1.3173494003157857	-0.4173414171288057	0.0	1.3224195697558148	-0.4000247168309489	0.0	1.423852220471225	-0.2778215395858123	0.0	1.5620008016828717	-0.2190908309394534	0.0	1.5692762564083007	-0.14860796668090215	0.0	1.581273719550084	-0.16100975409623883	0.0	1.5860202467581366	-0.21938614400595358	0.0	1.3274690595661238	-0.42334983982656715	0.0	1.4646114378418609	-0.38605117641463976	0.0	1.574932342076691	-0.48345005259264473	0.0	1.633859790318073	-0.45403444034909474	0.0	1.6245915937571827	-0.4652981979227086	0.0	1.5878877854978126	-0.5055841895232366	0.0	1.144246461193517	-0.334308978312828	0.0	1.1082789899778196	-0.260862864035222	0.0	1.1662398558789029	-0.272674634649948	0.0	1.1573819171780257	-0.33766541211725587	0.0	1.1964445926859044	-0.23355185919154753	0.0	1.186842815994529	-0.14567053757378665	0.0	1.1320439531974034	-0.35128515541442645	0.0	1.149130105990624	-0.25588293917633415	0.0	1.1560550017904672	-0.17086024972837452	0.0
85	2.855820105820106	1.326831911376494	-0.42136971254777084	0.0	1.333271485250247	-0.4041533095354664	0.0	1.441250266081917	-0.287712348384458	0.0	1.5849294338739877	-0.23942096185171743	0.0	1.5966609970104635	-0.17142660731315768	0.0	1.6073746068794694	-0.1827247020119043	0.0	1.6090215520378515	-0.2405358028332413	0.0	1.3356187064760503	-0.42937941962151804	0.0	1.4754975983651153	-0.40469117929397386	0.0	1.5806881193236901	-0.5073602490488368	0.0	1.6398271063777132	-0.4839845541241769	0.0	1.6294993849178034	-0.49565989817340295	0.0	1.59207807427915	-0.5293006662062268	0.0	1.1558143818216975	-0.3318576343856293	0.0	1.122000457403028	-0.25661995396199033	0.0	1.177452277480154	-0.27107823683588755	0.0	1.1689633196830769	-0.33525166548817753	0.0	1.2077587248176656	-0.23154126223309351	0.0	1.198345598795192	-0.14361433030817322	0.0	1.1421013969138847	-0.348220561931582	0.0	1.1575380524320977	-0.2563263081647783	0.0	1.1649451871401983	-0.16994143557575733	0.0
86	2.8894179894179897	1.3368117524731749	-0.4247435153069654	0.0	1.344119886461986	-0.40856465996587527	0.0	1.4585664842340293	-0.29813752196955795	0.0	1.60651114499014	-0.2611176809227891	0.0	1.6230914756890298	-0.19543099862395377	0.0	1.6326739825399965	-0.2059578873029351	0.0	1.6302720638843455	-0.2635340013769283	0.0	1.343807009815777	-0.4347119817610945	0.0	1.4849323322153816	-0.42297365652935	0.0	1.5850424838565533	-0.5303830199629175	0.0	1.6444215705533725	-0.5136247589146419	0.0	1.6332102271073652	-0.5250843517958375	0.0	1.5945975154560064	-0.5519050118485238	0.0	1.1680449193089144	-0.329772491181546	0.0	1.1354769229988357	-0.2532616894174144	0.0	1.1885311336713573	-0.26965994688444267	0.0	1.180620678586043	-0.33304228110004486	0.0	1.2193741796954782	-0.2296640703724106	0.0	1.2099930993123587	-0.1422390040563223	0.0	1.1537225519242675	-0.3448770094616533	0.0	1.1678187307143901	-0.2553702111378059	0.0	1.1749703759328993	-0.16831418161948702	0.0
